<svg height="464pt" viewBox="0 0 464 464" width="464pt" xmlns="http://www.w3.org/2000/svg"><path d="M152 320h168v104H152zm0 0" fill="#662b24"/><path d="M219.91 463.45c-1.207-.106-2.398-.25-3.62-.38 1.206.13 2.405.274 3.62.38zm0 0M207.594 461.871c-1.219-.2-2.442-.39-3.656-.625 1.214.234 2.46.426 3.656.625zm0 0" fill="#ffb531"/><g fill="#ffa912"><path d="M203.938 461.246c-3.875-.75-7.715-1.598-11.504-2.672 3.789 1.059 7.629 1.922 11.504 2.672zm0 0M216.29 463.07a147.18 147.18 0 01-8.696-1.199c2.879.492 5.777.89 8.695 1.2zm0 0M232 464c-4.047 0-8.078-.223-12.09-.55 4.012.327 8.043.55 12.09.55zm0 0"/></g><path d="M264.855 393.297c-34.523 14.601-74.539 4.848-98.472-24L154.105 352H136l-32 48 30.145 26.793a147.16 147.16 0 0058.289 31.781 166.929 166.929 0 0072.421-65.277zm0 0" fill="#ffb531"/><path d="M313.543 352l-15.941 17.273a85.29 85.29 0 01-6.93 7.329c-.399.382-.84.71-1.246 1.078a86.12 86.12 0 01-6.656 5.496c-.25.183-.512.344-.801.527a85.66 85.66 0 01-7.953 5.106l-.137.07a84.29 84.29 0 01-9.055 4.418 166.889 166.889 0 01-72.433 65.277c3.793 1.059 7.632 1.922 11.504 2.672 1.218.234 2.402.426 3.656.625 2.883.492 5.781.89 8.695 1.2 1.211.128 2.402.273 3.625.378 4 .328 8 .551 12.09.551a147.279 147.279 0 0097.855-37.207L360 400l-24-48zm0 0" fill="#ffa912"/><path d="M96 192h272v160H96zm0 0" fill="#662b24"/><path d="M96 280h272v16H96zm0 0M96 248h272v16H96zm0 0M96 312h272v16H96zm0 0" fill="#57221d"/><path d="M152 192h160v56H152zm0 0" fill="#662b24"/><path d="M256 88h-48V72c0-13.254 10.746-24 24-24s24 10.746 24 24zm0 0" fill="#ffb531"/><path d="M344 176H120l4.953-18.398C137.23 112 181.367 80 232 80s94.77 32 107.047 77.602zm0 0" fill="#e04343"/><path d="M305.16 232.895a41.446 41.446 0 01-30.273 15.074 41.447 41.447 0 01-31.422-12.504c-6.332-6.336-16.598-6.336-22.93 0A42.808 42.808 0 01190.273 248a39.915 39.915 0 01-31.433-15.105l-12.969-14.758-1.871.215V304l24.848 49.688A25.886 25.886 0 00192 368h80c9.805 0 18.77-5.543 23.152-14.313L320 304v-85.648l-1.871-.215zm0 0" fill="#e94f4f"/><path d="M318.129 218.137l-12.969 14.758c-11.492 14.148-30.95 19-47.734 11.906A279.802 279.802 0 01210.863 368H272c9.805 0 18.77-5.543 23.152-14.313L320 304v-85.648zm0 0" fill="#cf3a3a"/><path d="M232 280a8.157 8.157 0 01-2.527-.414l-24-8 5.054-15.203L232 263.566l21.473-7.152 5.054 15.203-24 8A8.031 8.031 0 01232 280zm0 0M261.602 327.8a195.152 195.152 0 00-59.25 0 15.438 15.438 0 01-12.493-2.991 15.425 15.425 0 01-5.906-11.41A14.955 14.955 0 01197.137 299l5.191-.8a195.126 195.126 0 0159.246 0l5.196.8c7.382.855 13.015 7.004 13.23 14.434a15.442 15.442 0 01-18.398 14.367zm0 0" fill="#662b24"/><path d="M168 288a8.001 8.001 0 01-5.656-2.344l-24-24a8 8 0 0111.312-11.312l24 24A8 8 0 01168 288zm0 0" fill="#cf3a3a"/><path d="M296 288c-3.234 0-6.152-1.95-7.39-4.938s-.551-6.43 1.734-8.718l24-24a8 8 0 0111.312 11.312l-24 24A8.001 8.001 0 01296 288zm0 0" fill="#ba2727"/><path d="M68.688 106.742L64 88 0 152a174.046 174.046 0 0085.137 94.566l23.129 11.57L120 176a112.622 112.622 0 01-51.313-69.258zm0 0" fill="#e94f4f"/><path d="M68.688 106.742L64 88 0 152a174.046 174.046 0 0085.137 94.566l23.129 11.57L120 176a112.622 112.622 0 01-51.313-69.258zm0 0" fill="#e04343"/><path d="M108.266 258.137l-23.13-11.57a173.726 173.726 0 01-18.847-11.153l-5.144 14.809A236.641 236.641 0 0048 328l48 24zm0 0" fill="#cf3a3a"/><path d="M395.313 106.742L400 88l64 64a174.046 174.046 0 01-85.137 94.566l-23.129 11.57L344 176a112.622 112.622 0 0051.313-69.258zm0 0" fill="#e94f4f"/><path d="M355.734 258.137l23.13-11.57a173.726 173.726 0 0018.847-11.153l5.144 14.809A236.641 236.641 0 01416 328l-48 24zm0 0" fill="#cf3a3a"/><path d="M360 400l48.168 3.703C439.672 406.13 464 432.403 464 464H232a147.279 147.279 0 0097.855-37.207zm0 0" fill="#e94f4f"/><path d="M429.48 409.398C412.23 434.176 361.031 451.808 336 464h128c-.004-23.336-13.441-44.586-34.52-54.602zm0 0" fill="#cf3a3a"/><path d="M390.36 402.336L367.32 464h17.07l22.57-60.383zm0 0M439.336 415.29a60.106 60.106 0 00-14.313-7.825L407.32 464h16.758zm0 0M360 400l-12.473 11.09L328.594 464h16.992l22.672-63.367zm0 0" fill="#ba2727"/><path d="M323.848 218.809l-68.2-8a202.48 202.48 0 00-47.296 0l-68.2 8a24.01 24.01 0 01-22.449-10.043 24.017 24.017 0 01-1.824-24.528L120 176h224l4.121 8.238a24.017 24.017 0 01-1.824 24.528 24.01 24.01 0 01-22.45 10.043zm0 0" fill="#ffb531"/><path d="M348.121 184.238L344 176h-72.734a295.218 295.218 0 01-41.188 33.45 201.65 201.65 0 0125.602 1.335l68.199 8a24.004 24.004 0 0024.242-34.547zm0 0" fill="#ffa912"/><path d="M317.55 402.105l28-28.41-7.542-15.144-31.809 32.273-.222.2-16-17.383a84.247 84.247 0 01-12.457 10.093l16.214 17.602a106.91 106.91 0 01-55.863 20.648v-24.12c-2.648.25-5.312.433-8 .433s-5.351-.2-8-.457v24.129a107.046 107.046 0 01-55.816-20.801l16.25-17.602a84.817 84.817 0 01-12.434-10.132l-16 17.359c-.07-.074-.152-.129-.215-.2l-27.953-28-9.07 13.598 25.695 25.762a124.656 124.656 0 0015.2 12.856l-14.618 19.015c4.34 3.14 8.844 6.047 13.496 8.703l14.649-19.054a122.967 122.967 0 0050.777 14.617v23.894c2.664.145 5.32.368 8 .375 2.68.008 5.336-.214 8-.359v-23.887a122.986 122.986 0 0050.953-14.562l14.399 19.203c4.66-2.64 9.175-5.527 13.52-8.656l-14.4-19.203a124.81 124.81 0 0015.247-12.79zm0 0" fill="#f7a116"/><path d="M104 400l-48.168 3.703C24.328 406.13 0 432.403 0 464h232a147.279 147.279 0 01-97.855-37.207zm0 0" fill="#e94f4f"/><path d="M134.145 426.793l-.801-.695A157.76 157.76 0 0159.688 464H232a147.279 147.279 0 01-97.855-37.207zm0 0" fill="#cf3a3a"/><path d="M73.64 402.336L96.68 464H79.61l-22.57-60.383zm0 0M24.664 415.29a60.106 60.106 0 0114.313-7.825L56.68 464H39.922zm0 0M104 400l12.473 11.09L135.406 464h-16.992l-22.672-63.367zm0 0" fill="#ba2727"/><path d="M339.047 157.602C328.195 120.297 297.91 91.848 260 83.352 234.984 139.137 177.762 164.8 140 176h204zm0 0" fill="#cf3a3a"/><path d="M272 40c8.836 0 16 7.164 16 16v8c0 30.93-25.07 56-56 56s-56-25.07-56-56v-8c0-8.836 7.164-16 16-16 0-22.09-17.91-40-40-40h-40a81.946 81.946 0 0124 57.945V72c0 53.02 42.98 96 96 96s96-42.98 96-96V57.945A81.946 81.946 0 01352 0h-40c-22.09 0-40 17.91-40 40zm0 0" fill="#ffb531"/><path d="M94.191 154.695a94.481 94.481 0 01-54.55 58.746 173.954 173.954 0 0045.496 33.125l23.129 11.57L120 176a112.366 112.366 0 01-25.809-21.305zm0 0M464 152l-64-64-4.688 18.742a112.041 112.041 0 01-6.808 19.281 273.588 273.588 0 0126.617 96.098A173.963 173.963 0 00464 152zm0 0" fill="#cf3a3a"/><path d="M405.023 257.398c-.742-2.398-1.343-4.796-2.168-7.199l-5.144-14.808a173.726 173.726 0 01-18.848 11.152L356 257.993a134.91 134.91 0 0049.023-.595zm0 0" fill="#ba2727"/><path d="M312 0c-22.09 0-40 17.91-40 40h.297c8.719.16 15.703 7.277 15.703 16v8a55.697 55.697 0 01-18.828 42.047 55.7 55.7 0 01-44.05 13.488 205.242 205.242 0 01-45.38 32.93 95.923 95.923 0 0098.094 3.918C308.773 139.593 328.03 107.203 328 72V57.945A81.946 81.946 0 01352 0zm0 0" fill="#ffa912"/></svg>